<?xml version="1.0" encoding="utf-8"?>
<!-- Generator: Adobe Illustrator 19.0.0, SVG Export Plug-In . SVG Version: 6.00 Build 0)  -->
<svg version="1.1" xmlns="http://www.w3.org/2000/svg" xmlns:xlink="http://www.w3.org/1999/xlink" x="0px" y="0px"
	 viewBox="0 0 719 210" enable-background="new 0 0 719 210" xml:space="preserve">
<g id="Layer_1">
	
		<text id="XMLID_5_" transform="matrix(1 0 0 1 163.2286 119.6315)" display="none" fill="#959595" font-family="'BrandonGrotesque-Medium'" font-size="195.9438px" letter-spacing="17">maker</text>
	
		<text id="XMLID_2_" transform="matrix(1 0 0 1 171.219 167.6287)" fill="#959595" font-family="'BrandonGrotesque-Medium'" font-size="40px" letter-spacing="6">LAUNCH SOMETHING</text>
	<g id="XMLID_291_">
		<path id="XMLID_292_" fill="#959595" d="M176,45c0-2,1.8-3.7,3.7-3.7h5.5c1.8,0,2.7,1,3.3,2.4l2.2,6.7c1.8-1.8,10.8-11,25.9-11
			c11.4,0,19.6,4.5,25.3,12.5c2.2-2.2,13.5-12.5,28.4-12.5c23.9,0,32.3,16.9,32.3,37.2v39.4c0,2-1.6,3.7-3.7,3.7h-11
			c-2.2,0-3.7-1.8-3.7-3.7V75.7c0-12.3-5.7-19.4-16.3-19.4c-12,0-18.8,8.4-20.2,9.6c0.4,1.8,0.6,5.5,0.6,9.4v40.6
			c0,2-1.8,3.7-3.7,3.7h-10.4c-2.2,0-3.7-1.8-3.7-3.7V75.7c0-12.5-5.7-19.4-16.7-19.4c-11.8,0-18.4,9.2-19.4,11.8v47.8
			c0,2-1.8,3.7-3.7,3.7h-11c-2,0-3.7-1.8-3.7-3.7V45z"/>
		<path id="XMLID_294_" fill="#959595" d="M370.3,70.1c8.2,0,15.5,2.4,15.5,2.4c0.2-12.3-2.2-17.2-12.1-17.2c-9,0-17.8,2.4-21.9,3.5
			c-2.4,0.6-3.7-1-4.3-3.1l-1.6-7.2c-0.6-2.5,0.8-3.9,2.5-4.5c1.4-0.6,12.5-4.5,27-4.5c25.1,0,27.4,15.3,27.4,34.9v41.7
			c0,2-1.8,3.7-3.7,3.7h-5.5c-1.8,0-2.5-0.8-3.3-2.7l-2-5.3c-4.3,4.1-12,10-24.1,10c-14.7,0-25.3-10-25.3-26.3
			C339,81,350.4,70.1,370.3,70.1z M368,107.7c7.8,0,15.3-5.9,17.6-9.8V85.3c-1.2-0.8-6.7-3.1-13.7-3.1c-9.4,0-15.9,4.9-15.9,12.9
			C356,102.2,360.7,107.7,368,107.7z"/>
		<path id="XMLID_297_" fill="#959595" d="M445.2,8.2c0-2,1.8-3.7,3.7-3.7h11.4c2,0,3.7,1.8,3.7,3.7V71l30.6-27.4
			c1.4-1.2,2.9-2.4,4.9-2.4h13.7c3.3,0,3.9,3.7,2.2,5.3l-32.5,29.6l38.4,38.4c1.8,1.8,1.2,5.1-2.2,5.1H503c-1.4,0-2.9-0.8-3.5-1.6
			L464,81.6v34.3c0,2-1.8,3.7-3.7,3.7h-11.4c-2,0-3.7-1.8-3.7-3.7V8.2z"/>
		<path id="XMLID_299_" fill="#959595" d="M586.5,39.3c20.4,0,36.1,15.3,36.1,36.2c0,1.4-0.2,3.9-0.4,5.3c-0.2,2-1.8,3.3-3.5,3.3
			h-53.3c0.6,10.6,9.8,21,22.5,21c7.1,0,13.5-3.1,17.4-5.7c2.4-1.4,3.7-2.2,5.3-0.2l5.5,7.4c1.4,1.6,2,3.1-0.4,5.1
			c-5.7,4.9-15.9,9.8-29,9.8c-23.7,0-39.4-18.6-39.4-41.1C547.3,58.3,563,39.3,586.5,39.3z M604.3,71.8c-0.6-9.4-8.4-17.4-18-17.4
			c-10.6,0-18.8,7.6-20,17.4H604.3z"/>
		<path id="XMLID_302_" fill="#959595" d="M659,45c0-2,1.8-3.7,3.7-3.7h5.7c1.4,0,2.9,1.2,3.3,2.7l2.2,6.7c1.4-2,8.6-11.4,22.9-11.4
			c7.4,0,16.5,2,14.3,7.2l-4.7,9.6c-1,2.2-2.9,2.5-4.7,1.8c-1.2-0.6-4.1-1.4-6.7-1.4c-11.4,0-16.9,8.2-17.6,9.6v49.8
			c0,3.3-2.2,3.7-5.3,3.7h-9.4c-2,0-3.7-1.8-3.7-3.7V45z"/>
	</g>
</g>
<g id="Layer_2">
	<path id="rocket_1_" fill-rule="evenodd" clip-rule="evenodd" fill="#50A7C7" d="M68.2,10c9.9,0,26.8,29.2,32.4,55.6
		c5.8,27.5,0,52.3,0,52.3s25.9,23,25.9,29.4c0,6.4-10.9,47-13,49.1c-2,2-10.8,2.1-13,0c-2.1-2.1-13-26.2-13-26.2H48.7
		c0,0-14.1,24-16.2,26.2c-2.1,2.1-11,2-13,0c-2-2-9.7-42.7-9.7-49.1s25.9-29.4,25.9-29.4s-8.4-26.6-3.2-52.3
		C38.1,37.5,57.6,10,68.2,10z"/>
	<path id="XMLID_14_" fill-rule="evenodd" clip-rule="evenodd" fill="#FFFFFF" d="M68.2,41.8c-8.9,0-18.3,39.7-16.7,41.4
		c1.6,1.7,31.3,1.8,33,0C86.3,81.4,77.1,41.8,68.2,41.8z"/>
</g>
</svg>
