<?xml version="1.0" encoding="utf-8"?>
<!-- Generator: Adobe Illustrator 19.0.0, SVG Export Plug-In . SVG Version: 6.00 Build 0)  -->
<svg version="1.1" xmlns="http://www.w3.org/2000/svg" xmlns:xlink="http://www.w3.org/1999/xlink" x="0px" y="0px"
	 viewBox="0 0 526 220" enable-background="new 0 0 526 220" xml:space="preserve">
<g id="Layer_1">
	
		<text id="XMLID_4_" transform="matrix(1 0 0 1 10.0002 169.3793)" fill="#959595" font-family="'SFUIDisplay-Medium'" font-size="195.9438px">m</text>
	
		<text id="XMLID_5_" transform="matrix(1 0 0 1 319.9826 169.3793)" fill="#959595" font-family="'SFUIDisplay-Medium'" font-size="195.9438px" letter-spacing="17">kr</text>
</g>
<g id="Layer_2">
	<g id="XMLID_2_">
		<g id="XMLID_3095_">
			<path id="XMLID_3096_" fill-rule="evenodd" clip-rule="evenodd" fill="#4CA7C9" d="M282.9,123.7c0,0,6-25.8,0-54.5
				c-5.8-27.5-23.4-57.9-33.7-57.9c-11,0-31.3,28.6-37.1,57.9c-5.3,26.8,3.4,54.5,3.4,54.5s-27,24-27,30.7s8,49,10.1,51.1
				c2.1,2.1,11.3,2.2,13.5,0c2.2-2.2,16.9-27.3,16.9-27.3h40.5c0,0,11.3,25,13.5,27.3s11.4,2.1,13.5,0c2.1-2.1,13.5-44.5,13.5-51.1
				C309.9,147.8,282.9,123.7,282.9,123.7z M266.2,108.3c-1.8,1.8-32.8,1.7-34.4,0c-1.6-1.7,14.2-43,17.4-43.1
				C252.3,65.2,268,106.5,266.2,108.3z"/>
		</g>
	</g>
</g>
</svg>
